<svg width="66" height="66" viewBox="0 0 66 66" fill="none" xmlns="http://www.w3.org/2000/svg">
<g filter="url(#filter0_d_115_2497)">
<rect x="15" y="10" width="36" height="36" rx="4" fill="white"/>
</g>
<path d="M20.0692 27.9852C20.0707 34.3394 24.6913 39.7497 30.967 40.7456V31.7181H27.69V27.9852H30.9709V25.1435C30.8242 23.797 31.2841 22.4551 32.2259 21.4816C33.1677 20.5081 34.4937 20.004 35.8443 20.106C36.8138 20.1217 37.7808 20.208 38.7376 20.3644V23.5406H37.105C36.5429 23.467 35.9778 23.6526 35.5689 24.0452C35.16 24.4378 34.9515 24.9948 35.0021 25.5595V27.9852H38.5814L38.0091 31.7194H35.0021V40.7456C41.7892 39.673 46.5485 33.4745 45.8321 26.6407C45.1158 19.8068 39.1746 14.73 32.3127 15.0881C25.4507 15.4463 20.0703 21.1139 20.0692 27.9852Z" fill="#0047B3"/>
<defs>
<filter id="filter0_d_115_2497" x="0" y="0" width="66" height="66" filterUnits="userSpaceOnUse" color-interpolation-filters="sRGB">
<feFlood flood-opacity="0" result="BackgroundImageFix"/>
<feColorMatrix in="SourceAlpha" type="matrix" values="0 0 0 0 0 0 0 0 0 0 0 0 0 0 0 0 0 0 127 0" result="hardAlpha"/>
<feOffset dy="5"/>
<feGaussianBlur stdDeviation="7.5"/>
<feColorMatrix type="matrix" values="0 0 0 0 0 0 0 0 0 0 0 0 0 0 0 0 0 0 0.06 0"/>
<feBlend mode="normal" in2="BackgroundImageFix" result="effect1_dropShadow_115_2497"/>
<feBlend mode="normal" in="SourceGraphic" in2="effect1_dropShadow_115_2497" result="shape"/>
</filter>
</defs>
</svg>
