<svg width="67" height="66" viewBox="0 0 67 66" fill="none" xmlns="http://www.w3.org/2000/svg">
<g filter="url(#filter0_d_115_2505)">
<rect x="15.1172" y="10" width="36" height="36" rx="4" fill="white"/>
</g>
<path d="M43.6621 22.0271C44.775 21.3618 45.6076 20.3143 46.0046 19.08C44.959 19.7005 43.8149 20.1375 42.6219 20.3723C40.9678 18.6226 38.3472 18.1968 36.2243 19.3329C34.1014 20.4689 33.0018 22.8855 33.5399 25.2323C29.2567 25.0173 25.2661 22.994 22.5612 19.666C21.1495 22.1008 21.8709 25.2134 24.2097 26.7791C23.364 26.7519 22.537 26.5229 21.7977 26.1112C21.7977 26.1336 21.7977 26.1559 21.7977 26.1782C21.7982 28.7146 23.5858 30.8993 26.0718 31.402C25.2873 31.6154 24.4645 31.6468 23.666 31.4938C24.3652 33.6629 26.3642 35.1488 28.6427 35.1931C26.7556 36.6743 24.4251 37.4775 22.0262 37.4736C21.6009 37.4742 21.1761 37.4497 20.7537 37.4003C23.1898 38.9657 26.0251 39.7966 28.9208 39.7937C32.9494 39.8214 36.8209 38.2332 39.6695 35.3843C42.5181 32.5355 44.106 28.6638 44.078 24.6352C44.078 24.4043 44.0726 24.1747 44.0619 23.9462C45.1052 23.1922 46.0056 22.2582 46.7209 21.1879C45.7489 21.6187 44.7179 21.9016 43.6621 22.0271Z" fill="#2C80FF"/>
<defs>
<filter id="filter0_d_115_2505" x="0.117188" y="0" width="66" height="66" filterUnits="userSpaceOnUse" color-interpolation-filters="sRGB">
<feFlood flood-opacity="0" result="BackgroundImageFix"/>
<feColorMatrix in="SourceAlpha" type="matrix" values="0 0 0 0 0 0 0 0 0 0 0 0 0 0 0 0 0 0 127 0" result="hardAlpha"/>
<feOffset dy="5"/>
<feGaussianBlur stdDeviation="7.5"/>
<feColorMatrix type="matrix" values="0 0 0 0 0 0 0 0 0 0 0 0 0 0 0 0 0 0 0.06 0"/>
<feBlend mode="normal" in2="BackgroundImageFix" result="effect1_dropShadow_115_2505"/>
<feBlend mode="normal" in="SourceGraphic" in2="effect1_dropShadow_115_2505" result="shape"/>
</filter>
</defs>
</svg>
